<svg width="1145" height="728" viewBox="0 0 1145 728" fill="none" xmlns="http://www.w3.org/2000/svg">
<path opacity="0.1" d="M1141.76 499.76C1139.96 513.528 1137 527.117 1132.89 540.38C1128.96 553.111 1123.92 565.474 1117.84 577.33C1117.84 659.85 1051.74 726.73 970.19 726.73H217.09C168.411 726.747 121.659 707.709 86.84 673.69L87.84 673.44C157.3 655.02 230.59 648.67 290.84 604.91C208.787 591.297 127.193 574.397 46.06 554.21C41.06 552.95 35.38 551.05 29.55 549.08C29.28 544.92 29.13 540.73 29.13 536.51C28.76 535.84 28.4 535.16 28.04 534.51C26.4533 531.57 24.9267 528.57 23.46 525.51C8.53 494.51 0 458.6 0 420.28C0 359.84 21.23 305.28 55.25 266.78C284.04 285.72 514.28 277.69 743.84 269.62L542.47 229.56L214.13 164.22C283.98 65.54 407.25 0 547.67 0C646.49 0 736.81 32.46 806.01 86.08C831.45 69.17 860.74 59.52 891.91 59.52C956.81 59.52 1013.54 101.25 1044.35 163.52C1044.35 163.52 1044.35 163.52 1044.35 163.57C1059.93 195.07 1068.87 231.8 1068.87 271.04C1068.87 278.04 1068.58 285.04 1068.01 291.94C1068.01 292.35 1067.95 292.75 1067.91 293.16C1089.31 310.97 1107.26 334.27 1120.32 361.36C1120.48 361.68 1120.64 362.02 1120.79 362.36C1123.08 367.127 1125.2 372.013 1127.17 377.02H1126.98C1118.58 378.88 1110.19 380.773 1101.81 382.7C1011.5 403.567 922.013 428.85 833.36 458.55C807.947 467.057 782.613 475.93 757.36 485.17C736.04 492.96 708.62 510.64 686.52 512.11C837.62 501.98 989.93 516.75 1140.33 499.92L1141.76 499.76Z" fill="#F9A826"/>
<path opacity="0.1" d="M1144.02 466.78C1144.02 394.84 1113.96 331.31 1068.02 293.11C1068.65 285.837 1068.99 278.463 1069.02 270.99C1069.02 154.2 989.75 59.56 892.02 59.56C860.84 59.56 831.55 69.21 806.11 86.12C736.91 32.46 646.58 0 547.76 0C386.97 0 248.66 85.93 187.3 209.16C183.89 208.92 180.46 208.79 177 208.79C79.26 208.79 0 303.47 0 420.27C0 463.2 10.72 503.15 29.12 536.5C29.12 641.58 113.31 726.77 217.12 726.77H970.26C1051.8 726.77 1117.9 659.88 1117.9 577.38C1134.46 545.2 1144.02 507.32 1144.02 466.78Z" fill="#F9A826" fill-opacity="0.8"/>
<g clip-path="url(#clip0)">
<path d="M323.088 428.866C333.255 428.866 341.497 420.624 341.497 410.457C341.497 400.29 333.255 392.048 323.088 392.048C312.921 392.048 304.679 400.29 304.679 410.457C304.679 420.624 312.921 428.866 323.088 428.866Z" fill="#F2F2F2"/>
<path d="M260.088 633.866C266.389 633.866 271.497 628.758 271.497 622.457C271.497 616.156 266.389 611.048 260.088 611.048C253.787 611.048 248.679 616.156 248.679 622.457C248.679 628.758 253.787 633.866 260.088 633.866Z" fill="#F2F2F2"/>
<path d="M609.997 103.5H469.997V105.5H609.997V103.5Z" fill="#F2F2F2"/>
<path d="M509.997 85.5H507.997V104H509.997V85.5Z" fill="#F2F2F2"/>
<path d="M570.997 85.5H568.997V104H570.997V85.5Z" fill="#F2F2F2"/>
<path d="M835.997 587.5H695.997V589.5H835.997V587.5Z" fill="#F2F2F2"/>
<path d="M735.997 569.5H733.997V588H735.997V569.5Z" fill="#F2F2F2"/>
<path d="M796.997 569.5H794.997V588H796.997V569.5Z" fill="#F2F2F2"/>
<path d="M842.997 282.5H702.997V284.5H842.997V282.5Z" fill="#F2F2F2"/>
<path d="M742.997 264.5H740.997V283H742.997V264.5Z" fill="#F2F2F2"/>
<path d="M803.997 264.5H801.997V283H803.997V264.5Z" fill="#F2F2F2"/>
<path d="M842.997 210.5H702.997V212.5H842.997V210.5Z" fill="#F2F2F2"/>
<path d="M742.997 192.5H740.997V211H742.997V192.5Z" fill="#F2F2F2"/>
<path d="M803.997 192.5H801.997V211H803.997V192.5Z" fill="#F2F2F2"/>
<path d="M535.997 220.5H395.997V222.5H535.997V220.5Z" fill="#F2F2F2"/>
<path d="M435.997 202.5H433.997V221H435.997V202.5Z" fill="#F2F2F2"/>
<path d="M496.997 202.5H494.997V221H496.997V202.5Z" fill="#F2F2F2"/>
<path d="M433.997 173.5H293.997V175.5H433.997V173.5Z" fill="#F2F2F2"/>
<path d="M333.997 155.5H331.997V174H333.997V155.5Z" fill="#F2F2F2"/>
<path d="M394.997 155.5H392.997V174H394.997V155.5Z" fill="#F2F2F2"/>
<path d="M370.997 358.5H230.997V360.5H370.997V358.5Z" fill="#F2F2F2"/>
<path d="M270.997 340.5H268.997V359H270.997V340.5Z" fill="#F2F2F2"/>
<path d="M331.997 340.5H329.997V359H331.997V340.5Z" fill="#F2F2F2"/>
<path d="M300.997 562.5H160.997V564.5H300.997V562.5Z" fill="#F2F2F2"/>
<path d="M200.997 544.5H198.997V563H200.997V544.5Z" fill="#F2F2F2"/>
<path d="M261.997 544.5H259.997V563H261.997V544.5Z" fill="#F2F2F2"/>
<path d="M962.997 478.5H822.997V480.5H962.997V478.5Z" fill="#F2F2F2"/>
<path d="M862.997 460.5H860.997V479H862.997V460.5Z" fill="#F2F2F2"/>
<path d="M923.997 460.5H921.997V479H923.997V460.5Z" fill="#F2F2F2"/>
<path d="M921.997 350.5H781.997V352.5H921.997V350.5Z" fill="#F2F2F2"/>
<path d="M883.997 352H881.997V370.5H883.997V352Z" fill="#F2F2F2"/>
<path d="M822.997 352H820.997V370.5H822.997V352Z" fill="#F2F2F2"/>
<path d="M243.997 200.5H103.997V202.5H243.997V200.5Z" fill="#F2F2F2"/>
<path d="M205.997 202H203.997V220.5H205.997V202Z" fill="#F2F2F2"/>
<path d="M144.997 202H142.997V220.5H144.997V202Z" fill="#F2F2F2"/>
<path d="M252.997 462.5H112.997V464.5H252.997V462.5Z" fill="#F2F2F2"/>
<path d="M214.997 464H212.997V482.5H214.997V464Z" fill="#F2F2F2"/>
<path d="M153.997 464H151.997V482.5H153.997V464Z" fill="#F2F2F2"/>
<path d="M693.997 135.5H553.997V137.5H693.997V135.5Z" fill="#F2F2F2"/>
<path d="M655.997 137H653.997V155.5H655.997V137Z" fill="#F2F2F2"/>
<path d="M594.997 137H592.997V155.5H594.997V137Z" fill="#F2F2F2"/>
<path d="M300.997 274.5H160.997V276.5H300.997V274.5Z" fill="#F2F2F2"/>
<path d="M200.997 256.5H198.997V275H200.997V256.5Z" fill="#F2F2F2"/>
<path d="M261.997 256.5H259.997V275H261.997V256.5Z" fill="#F2F2F2"/>
<path d="M323.497 255V726H759.497V255H323.497ZM541.497 289C538.53 289 535.63 288.12 533.163 286.472C530.697 284.824 528.774 282.481 527.639 279.74C526.504 276.999 526.206 273.983 526.785 271.074C527.364 268.164 528.793 265.491 530.89 263.393C532.988 261.296 535.661 259.867 538.571 259.288C541.48 258.709 544.496 259.007 547.237 260.142C549.978 261.277 552.321 263.2 553.969 265.666C555.617 268.133 556.497 271.033 556.497 274C556.497 277.978 554.917 281.794 552.104 284.607C549.291 287.42 545.475 289 541.497 289V289Z" fill="#3F3D56"/>
<path d="M127.255 685.797C134.169 711.356 157.851 727.184 157.851 727.184C157.851 727.184 170.323 701.575 163.409 676.017C156.495 650.459 132.813 634.63 132.813 634.63C132.813 634.63 120.341 660.239 127.255 685.797Z" fill="#3F3D56"/>
<path d="M137.415 680.305C156.387 698.773 158.704 727.164 158.704 727.164C158.704 727.164 130.261 725.611 111.289 707.142C92.3173 688.674 90 660.283 90 660.283C90 660.283 118.443 661.836 137.415 680.305Z" fill="#F9A826"/>
<path d="M1015.5 725H106.497V727H1015.5V725Z" fill="#3F3D56"/>
<path d="M281.997 663.338C281.991 658.906 280.649 654.579 278.146 650.922C275.643 647.265 272.095 644.447 267.966 642.838C272.749 640.979 276.732 637.507 279.225 633.022C281.719 628.537 282.566 623.322 281.62 618.278C280.675 613.235 277.996 608.68 274.047 605.403C270.098 602.126 265.128 600.332 259.997 600.332C254.866 600.332 249.895 602.126 245.947 605.403C241.998 608.68 239.319 613.235 238.374 618.278C237.428 623.322 238.275 628.537 240.769 633.022C243.262 637.507 247.245 640.979 252.028 642.838C247.896 644.443 244.345 647.259 241.841 650.917C239.337 654.575 237.997 658.905 237.997 663.338C237.997 667.771 239.337 672.101 241.841 675.759C244.345 679.417 247.896 682.234 252.028 683.838C247.245 685.697 243.262 689.169 240.769 693.654C238.275 698.139 237.428 703.354 238.374 708.398C239.319 713.442 241.998 717.996 245.947 721.273C249.895 724.55 254.866 726.344 259.997 726.344C265.128 726.344 270.098 724.55 274.047 721.273C277.996 717.996 280.675 713.442 281.62 708.398C282.566 703.354 281.719 698.139 279.225 693.654C276.732 689.169 272.749 685.697 267.966 683.838C272.095 682.229 275.643 679.412 278.146 675.754C280.649 672.097 281.991 667.77 281.997 663.338V663.338ZM239.997 622.338C239.994 618.575 241.052 614.888 243.05 611.7C245.049 608.512 247.906 605.952 251.294 604.314C254.681 602.677 258.462 602.028 262.202 602.443C265.942 602.858 269.489 604.319 272.435 606.659C275.382 609 277.608 612.123 278.859 615.672C280.11 619.221 280.335 623.05 279.507 626.721C278.679 630.391 276.833 633.754 274.18 636.422C271.527 639.091 268.176 640.956 264.51 641.805C261.534 641.182 258.46 641.182 255.484 641.805C251.085 640.783 247.162 638.303 244.35 634.769C241.539 631.235 240.005 626.854 239.997 622.338V622.338ZM279.997 704.338C280 708.101 278.942 711.788 276.944 714.976C274.945 718.165 272.088 720.724 268.7 722.362C265.313 723.999 261.532 724.648 257.792 724.233C254.052 723.818 250.505 722.357 247.559 720.017C244.612 717.677 242.386 714.553 241.135 711.004C239.884 707.456 239.659 703.626 240.487 699.956C241.315 696.285 243.161 692.922 245.814 690.254C248.467 687.586 251.818 685.72 255.484 684.871C258.46 685.494 261.534 685.494 264.51 684.871C268.909 685.893 272.832 688.373 275.644 691.907C278.455 695.441 279.989 699.822 279.997 704.338V704.338ZM264.51 682.805C261.534 682.182 258.46 682.182 255.484 682.805C251.082 681.79 247.154 679.312 244.341 675.776C241.528 672.241 239.997 667.856 239.997 663.338C239.997 658.82 241.528 654.436 244.341 650.9C247.154 647.364 251.082 644.887 255.484 643.871C258.46 644.494 261.534 644.494 264.51 643.871C268.912 644.887 272.84 647.364 275.653 650.9C278.466 654.436 279.997 658.82 279.997 663.338C279.997 667.856 278.466 672.241 275.653 675.776C272.84 679.312 268.912 681.79 264.51 682.805V682.805Z" fill="#3F3D56"/>
<path d="M600.997 353.5H371.997C370.14 353.5 368.36 352.763 367.047 351.45C365.735 350.137 364.997 348.357 364.997 346.5C364.997 344.643 365.735 342.863 367.047 341.55C368.36 340.238 370.14 339.5 371.997 339.5H600.997C602.853 339.5 604.634 340.238 605.947 341.55C607.26 342.863 607.997 344.643 607.997 346.5C607.997 348.357 607.26 350.137 605.947 351.45C604.634 352.763 602.853 353.5 600.997 353.5V353.5Z" fill="#F2F2F2"/>
<path d="M600.997 425.5H371.997C370.14 425.5 368.36 424.763 367.047 423.45C365.735 422.137 364.997 420.357 364.997 418.5C364.997 416.643 365.735 414.863 367.047 413.55C368.36 412.238 370.14 411.5 371.997 411.5H600.997C602.853 411.5 604.634 412.238 605.947 413.55C607.26 414.863 607.997 416.643 607.997 418.5C607.997 420.357 607.26 422.137 605.947 423.45C604.634 424.763 602.853 425.5 600.997 425.5Z" fill="#F2F2F2"/>
<path d="M600.997 497.5H371.997C370.14 497.5 368.36 496.763 367.047 495.45C365.735 494.137 364.997 492.357 364.997 490.5C364.997 488.643 365.735 486.863 367.047 485.55C368.36 484.238 370.14 483.5 371.997 483.5H600.997C602.853 483.5 604.634 484.238 605.947 485.55C607.26 486.863 607.997 488.643 607.997 490.5C607.997 492.357 607.26 494.137 605.947 495.45C604.634 496.763 602.853 497.5 600.997 497.5Z" fill="#F2F2F2"/>
<path d="M600.997 569.5H371.997C370.14 569.5 368.36 568.763 367.047 567.45C365.735 566.137 364.997 564.357 364.997 562.5C364.997 560.643 365.735 558.863 367.047 557.55C368.36 556.238 370.14 555.5 371.997 555.5H600.997C602.853 555.5 604.634 556.238 605.947 557.55C607.26 558.863 607.997 560.643 607.997 562.5C607.997 564.357 607.26 566.137 605.947 567.45C604.634 568.763 602.853 569.5 600.997 569.5V569.5Z" fill="#F2F2F2"/>
<path d="M600.997 641.5H371.997C370.14 641.5 368.36 640.763 367.047 639.45C365.735 638.137 364.997 636.357 364.997 634.5C364.997 632.643 365.735 630.863 367.047 629.55C368.36 628.238 370.14 627.5 371.997 627.5H600.997C602.853 627.5 604.634 628.238 605.947 629.55C607.26 630.863 607.997 632.643 607.997 634.5C607.997 636.357 607.26 638.137 605.947 639.45C604.634 640.763 602.853 641.5 600.997 641.5Z" fill="#F2F2F2"/>
<path d="M560.997 353.5H370.997C369.14 353.5 367.36 352.763 366.047 351.45C364.735 350.137 363.997 348.357 363.997 346.5C363.997 344.643 364.735 342.863 366.047 341.55C367.36 340.238 369.14 339.5 370.997 339.5H560.997C562.853 339.5 564.634 340.238 565.947 341.55C567.26 342.863 567.997 344.643 567.997 346.5C567.997 348.357 567.26 350.137 565.947 351.45C564.634 352.763 562.853 353.5 560.997 353.5V353.5Z" fill="#F9A826"/>
<path d="M501.997 425.5H370.997C369.14 425.5 367.36 424.763 366.047 423.45C364.735 422.137 363.997 420.357 363.997 418.5C363.997 416.643 364.735 414.863 366.047 413.55C367.36 412.238 369.14 411.5 370.997 411.5H501.997C503.853 411.5 505.634 412.238 506.947 413.55C508.26 414.863 508.997 416.643 508.997 418.5C508.997 420.357 508.26 422.137 506.947 423.45C505.634 424.763 503.853 425.5 501.997 425.5Z" fill="#F9A826"/>
<path d="M429.997 497.5H370.997C369.14 497.5 367.36 496.763 366.047 495.45C364.735 494.137 363.997 492.357 363.997 490.5C363.997 488.643 364.735 486.863 366.047 485.55C367.36 484.238 369.14 483.5 370.997 483.5H429.997C431.854 483.5 433.634 484.238 434.947 485.55C436.26 486.863 436.997 488.643 436.997 490.5C436.997 492.357 436.26 494.137 434.947 495.45C433.634 496.763 431.854 497.5 429.997 497.5V497.5Z" fill="#F9A826"/>
<path d="M578.997 569.5H370.997C369.14 569.5 367.36 568.763 366.047 567.45C364.735 566.137 363.997 564.357 363.997 562.5C363.997 560.643 364.735 558.863 366.047 557.55C367.36 556.238 369.14 555.5 370.997 555.5H578.997C580.853 555.5 582.634 556.238 583.947 557.55C585.26 558.863 585.997 560.643 585.997 562.5C585.997 564.357 585.26 566.137 583.947 567.45C582.634 568.763 580.853 569.5 578.997 569.5V569.5Z" fill="#F9A826"/>
<path d="M532.997 641.5H370.997C369.14 641.5 367.36 640.763 366.047 639.45C364.735 638.137 363.997 636.357 363.997 634.5C363.997 632.643 364.735 630.863 366.047 629.55C367.36 628.238 369.14 627.5 370.997 627.5H532.997C534.853 627.5 536.634 628.238 537.947 629.55C539.26 630.863 539.997 632.643 539.997 634.5C539.997 636.357 539.26 638.137 537.947 639.45C536.634 640.763 534.853 641.5 532.997 641.5V641.5Z" fill="#F9A826"/>
<path d="M695.997 339.5H693.997V353.5H695.997V339.5Z" fill="#F9A826"/>
<path d="M710.997 354.5C709.415 354.5 707.868 354.031 706.552 353.152C705.237 352.273 704.211 351.023 703.606 349.561C703 348.1 702.842 346.491 703.151 344.939C703.459 343.387 704.221 341.962 705.34 340.843C706.459 339.724 707.884 338.962 709.436 338.654C710.988 338.345 712.597 338.503 714.058 339.109C715.52 339.714 716.77 340.74 717.649 342.055C718.528 343.371 718.997 344.918 718.997 346.5C718.994 348.621 718.151 350.654 716.651 352.154C715.151 353.654 713.118 354.498 710.997 354.5V354.5ZM710.997 340.5C709.81 340.5 708.65 340.852 707.664 341.511C706.677 342.17 705.908 343.108 705.454 344.204C705 345.3 704.881 346.507 705.112 347.671C705.344 348.834 705.915 349.904 706.754 350.743C707.593 351.582 708.662 352.153 709.826 352.385C710.99 352.616 712.197 352.497 713.293 352.043C714.389 351.589 715.326 350.82 715.986 349.833C716.645 348.847 716.997 347.687 716.997 346.5C716.995 344.909 716.362 343.384 715.238 342.259C714.113 341.134 712.588 340.502 710.997 340.5V340.5Z" fill="#F9A826"/>
<path d="M695.997 411.5H693.997V425.5H695.997V411.5Z" fill="#F9A826"/>
<path d="M710.997 426.5C709.415 426.5 707.868 426.031 706.552 425.152C705.237 424.273 704.211 423.023 703.606 421.561C703 420.1 702.842 418.491 703.151 416.939C703.459 415.387 704.221 413.962 705.34 412.843C706.459 411.724 707.884 410.962 709.436 410.654C710.988 410.345 712.597 410.503 714.058 411.109C715.52 411.714 716.77 412.74 717.649 414.055C718.528 415.371 718.997 416.918 718.997 418.5C718.994 420.621 718.151 422.654 716.651 424.154C715.151 425.654 713.118 426.498 710.997 426.5ZM710.997 412.5C709.81 412.5 708.65 412.852 707.664 413.511C706.677 414.17 705.908 415.108 705.454 416.204C705 417.3 704.881 418.507 705.112 419.671C705.344 420.834 705.915 421.904 706.754 422.743C707.593 423.582 708.662 424.153 709.826 424.385C710.99 424.616 712.197 424.497 713.293 424.043C714.389 423.589 715.326 422.82 715.986 421.833C716.645 420.847 716.997 419.687 716.997 418.5C716.995 416.909 716.362 415.384 715.238 414.259C714.113 413.134 712.588 412.502 710.997 412.5V412.5Z" fill="#F9A826"/>
<path d="M695.997 483.5H693.997V497.5H695.997V483.5Z" fill="#F9A826"/>
<path d="M710.997 498.5C709.415 498.5 707.868 498.031 706.552 497.152C705.237 496.273 704.211 495.023 703.606 493.561C703 492.1 702.842 490.491 703.151 488.939C703.459 487.387 704.221 485.962 705.34 484.843C706.459 483.724 707.884 482.962 709.436 482.654C710.988 482.345 712.597 482.503 714.058 483.109C715.52 483.714 716.77 484.74 717.649 486.055C718.528 487.371 718.997 488.918 718.997 490.5C718.994 492.621 718.151 494.654 716.651 496.154C715.151 497.654 713.118 498.498 710.997 498.5V498.5ZM710.997 484.5C709.81 484.5 708.65 484.852 707.664 485.511C706.677 486.17 705.908 487.108 705.454 488.204C705 489.3 704.881 490.507 705.112 491.671C705.344 492.834 705.915 493.904 706.754 494.743C707.593 495.582 708.662 496.153 709.826 496.385C710.99 496.616 712.197 496.497 713.293 496.043C714.389 495.589 715.326 494.82 715.986 493.833C716.645 492.847 716.997 491.687 716.997 490.5C716.995 488.909 716.362 487.384 715.238 486.259C714.113 485.134 712.588 484.502 710.997 484.5V484.5Z" fill="#F9A826"/>
<path d="M695.997 555.5H693.997V569.5H695.997V555.5Z" fill="#F9A826"/>
<path d="M710.997 570.5C709.415 570.5 707.868 570.031 706.552 569.152C705.237 568.273 704.211 567.023 703.606 565.561C703 564.1 702.842 562.491 703.151 560.939C703.459 559.387 704.221 557.962 705.34 556.843C706.459 555.724 707.884 554.962 709.436 554.654C710.988 554.345 712.597 554.503 714.058 555.109C715.52 555.714 716.77 556.74 717.649 558.055C718.528 559.371 718.997 560.918 718.997 562.5C718.994 564.621 718.151 566.654 716.651 568.154C715.151 569.654 713.118 570.498 710.997 570.5V570.5ZM710.997 556.5C709.81 556.5 708.65 556.852 707.664 557.511C706.677 558.17 705.908 559.108 705.454 560.204C705 561.3 704.881 562.507 705.112 563.671C705.344 564.834 705.915 565.904 706.754 566.743C707.593 567.582 708.662 568.153 709.826 568.385C710.99 568.616 712.197 568.497 713.293 568.043C714.389 567.589 715.326 566.82 715.986 565.833C716.645 564.847 716.997 563.687 716.997 562.5C716.995 560.909 716.362 559.384 715.238 558.259C714.113 557.134 712.588 556.502 710.997 556.5Z" fill="#F9A826"/>
<path d="M695.997 627.5H693.997V641.5H695.997V627.5Z" fill="#F9A826"/>
<path d="M710.997 642.5C709.415 642.5 707.868 642.031 706.552 641.152C705.237 640.273 704.211 639.023 703.606 637.561C703 636.1 702.842 634.491 703.151 632.939C703.459 631.387 704.221 629.962 705.34 628.843C706.459 627.724 707.884 626.962 709.436 626.654C710.988 626.345 712.597 626.503 714.058 627.109C715.52 627.714 716.77 628.74 717.649 630.055C718.528 631.371 718.997 632.918 718.997 634.5C718.994 636.621 718.151 638.654 716.651 640.154C715.151 641.654 713.118 642.498 710.997 642.5V642.5ZM710.997 628.5C709.81 628.5 708.65 628.852 707.664 629.511C706.677 630.17 705.908 631.108 705.454 632.204C705 633.3 704.881 634.507 705.112 635.671C705.344 636.834 705.915 637.904 706.754 638.743C707.593 639.582 708.662 640.153 709.826 640.385C710.99 640.616 712.197 640.497 713.293 640.043C714.389 639.589 715.326 638.82 715.986 637.833C716.645 636.847 716.997 635.687 716.997 634.5C716.995 632.909 716.362 631.384 715.238 630.259C714.113 629.134 712.588 628.502 710.997 628.5Z" fill="#F9A826"/>
<path d="M710.997 350.5C713.206 350.5 714.997 348.709 714.997 346.5C714.997 344.291 713.206 342.5 710.997 342.5C708.788 342.5 706.997 344.291 706.997 346.5C706.997 348.709 708.788 350.5 710.997 350.5Z" fill="#F9A826"/>
<path d="M710.997 566.5C713.206 566.5 714.997 564.709 714.997 562.5C714.997 560.291 713.206 558.5 710.997 558.5C708.788 558.5 706.997 560.291 706.997 562.5C706.997 564.709 708.788 566.5 710.997 566.5Z" fill="#F9A826"/>
<path d="M710.997 638.5C713.206 638.5 714.997 636.709 714.997 634.5C714.997 632.291 713.206 630.5 710.997 630.5C708.788 630.5 706.997 632.291 706.997 634.5C706.997 636.709 708.788 638.5 710.997 638.5Z" fill="#F9A826"/>
<path d="M541.497 281C545.363 281 548.497 277.866 548.497 274C548.497 270.134 545.363 267 541.497 267C537.631 267 534.497 270.134 534.497 274C534.497 277.866 537.631 281 541.497 281Z" fill="#3F3D56"/>
<path d="M541.497 96C545.363 96 548.497 92.866 548.497 89C548.497 85.134 545.363 82 541.497 82C537.631 82 534.497 85.134 534.497 89C534.497 92.866 537.631 96 541.497 96Z" fill="#3F3D56"/>
<path d="M542.497 88.9999H540.497V274H542.497V88.9999Z" fill="#3F3D56"/>
<path d="M946.614 466.479V491.254C946.614 491.254 952.578 531.169 952.578 566.037C952.578 600.906 942.943 682.112 942.943 682.112C942.943 682.112 923.674 688.994 922.297 678.442C920.921 667.89 917.251 611.917 917.251 603.658C917.251 595.4 901.193 532.545 901.193 532.545L891.1 602.282C891.1 602.282 894.311 684.865 891.1 687.159C887.888 689.453 872.289 693.582 870.454 689.453C868.619 685.324 858.984 596.777 858.984 596.777C858.984 596.777 851.184 481.16 855.772 474.279C860.36 467.397 864.489 461.891 864.489 461.891C864.489 461.891 930.097 445.833 946.614 466.479Z" fill="#2F2E41"/>
<path d="M940.649 679.359L941.8 686.838C942.185 689.39 942.436 691.959 942.552 694.537C942.731 698.294 943.356 704.082 945.497 705C948.709 706.376 969.553 723.956 954.872 724.873C940.19 725.791 932.846 727.376 928.497 724C923.356 720.008 929.179 721.816 926.885 721.816C924.591 721.816 921.839 721.816 920.921 718.145C920.003 714.475 922.297 708.052 922.297 708.052V679.359H940.649Z" fill="#2F2E41"/>
<path d="M872.145 679L870.995 686.479C870.609 689.03 870.358 691.6 870.243 694.178C870.064 697.935 869.438 703.723 867.297 704.641C864.086 706.017 843.241 723.597 857.923 724.514C872.604 725.432 879.949 727.017 884.297 723.641C889.439 719.649 883.615 721.456 885.909 721.456C888.203 721.456 890.956 721.456 891.873 717.786C892.791 714.116 890.497 707.693 890.497 707.693V679H872.145Z" fill="#2F2E41"/>
<path d="M885.135 267.362C885.135 267.362 892.935 286.632 898.44 289.843C903.946 293.055 901.193 307.736 901.193 307.736L887.429 327.006H876.418L863.113 304.066C863.113 304.066 862.195 288.926 859.443 285.255C856.69 281.585 885.135 267.362 885.135 267.362Z" fill="#FFB9B9"/>
<path opacity="0.1" d="M885.135 267.362C885.135 267.362 892.935 286.632 898.44 289.843C903.946 293.055 901.193 307.736 901.193 307.736L887.429 327.006H876.418L863.113 304.066C863.113 304.066 862.195 288.926 859.443 285.255C856.69 281.585 885.135 267.362 885.135 267.362Z" fill="black"/>
<path d="M896.605 306.819L917.251 311.407L932.391 463.726C932.391 463.726 924.133 465.103 915.874 476.114C907.616 487.125 897.523 485.29 892.476 482.537C887.429 479.784 867.242 471.984 866.783 468.773C866.325 465.561 867.701 409.13 867.701 409.13L854.855 321.041L861.278 311.407H872.748L881.924 319.206L896.605 306.819Z" fill="#F9A826"/>
<path d="M865.407 291.22C878.583 291.22 889.264 280.538 889.264 267.362C889.264 254.186 878.583 243.505 865.407 243.505C852.231 243.505 841.55 254.186 841.55 267.362C841.55 280.538 852.231 291.22 865.407 291.22Z" fill="#FFB9B9"/>
<path d="M899.817 299.019C899.817 299.019 944.778 303.607 948.908 313.242C953.037 322.877 946.155 365.544 946.155 365.544C946.155 365.544 962.671 402.707 962.213 411.424C961.754 420.141 977.812 479.784 960.377 472.902C942.943 466.02 948.449 448.127 939.732 460.973C931.015 473.82 927.344 471.984 927.344 471.984C927.344 471.984 918.627 486.207 915.874 484.831C913.122 483.454 911.286 472.902 917.251 467.855C923.215 462.809 922.297 454.092 910.828 437.575C899.358 421.058 887.429 334.346 894.311 321.041C901.193 307.736 899.817 299.019 899.817 299.019Z" fill="#575A89"/>
<path d="M946.614 475.196L938.814 482.537L929.179 476.114L933.309 466.479L946.614 475.196Z" fill="#FFB9B9"/>
<path d="M866.783 306.819C866.783 306.819 831.915 319.665 831.915 333.429C831.915 347.193 853.02 407.295 853.02 407.295C853.02 407.295 853.02 422.894 852.102 426.564C851.184 430.234 836.749 462.247 849.349 465.103C857.214 466.885 863.676 471.569 864.26 478.178C864.953 486.027 858.945 495.934 859.443 497.677C860.36 500.889 865.866 505.476 865.407 503.182C864.948 500.888 869.077 467.855 875.5 453.174C881.924 438.493 872.748 339.852 870.913 327.006C870.027 320.186 868.647 313.439 866.783 306.819V306.819Z" fill="#575A89"/>
<path d="M848.432 474.278L856.69 494.007L862.884 481.39L855.772 465.561L848.432 474.278Z" fill="#FFB9B9"/>
<path d="M892.284 282.143C892.284 282.143 899.817 285.255 904.404 285.255C908.992 285.255 927.803 294.89 921.38 300.854C914.957 306.819 905.322 308.195 900.734 316.912C896.146 325.629 893.852 327.006 893.852 327.006L885.684 316.033C885.684 316.033 897.064 303.148 896.605 299.019C896.146 294.89 892.284 282.143 892.284 282.143Z" fill="#F9A826"/>
<path d="M861.874 293.174C861.874 293.174 856.231 295.349 854.855 299.019C853.478 302.69 844.761 309.571 848.432 311.407C852.102 313.242 868.16 320.582 871.371 321.959C874.583 323.335 880.568 318.054 880.568 318.054C880.568 318.054 872.518 313.471 872.518 310.26C872.518 307.048 861.874 293.174 861.874 293.174Z" fill="#F9A826"/>
<path d="M842.926 327.006L831.915 329.758C831.915 329.758 816.775 397.66 821.363 414.635C825.951 431.611 847.514 482.537 847.514 482.537L861.278 466.479C861.278 466.479 855.274 429.964 851.853 427.576C848.432 425.188 850.726 420.141 850.726 418.764C850.726 417.388 852.102 418.306 848.891 415.094C845.679 411.882 860.819 393.99 856.69 388.943C852.561 383.896 842.926 327.006 842.926 327.006Z" fill="#575A89"/>
<path opacity="0.1" d="M951.431 339.622L944.778 314.618C944.778 314.618 962.671 327.464 966.342 346.275C970.012 365.086 984.235 402.707 975.059 419.223C965.883 435.74 949.825 483.454 944.32 482.537C938.814 481.619 925.509 470.149 925.05 468.314C924.591 466.479 948.907 424.27 945.237 421.058C941.567 417.847 942.484 409.589 945.237 407.753C947.99 405.918 951.201 397.201 948.907 397.66C946.614 398.119 939.732 393.531 941.108 388.484C942.484 383.437 934.226 349.487 934.226 349.487L951.431 339.622Z" fill="black"/>
<path d="M942.484 311.407L948.907 313.242C948.907 313.242 966.801 326.088 970.471 344.899C974.141 363.709 988.364 401.33 979.188 417.847C970.012 434.363 953.954 482.078 948.449 481.16C942.943 480.243 929.638 468.773 929.179 466.938C928.721 465.103 953.037 422.894 949.366 419.682C945.696 416.47 946.614 408.212 949.366 406.377C952.119 404.542 955.331 395.825 953.037 396.284C950.743 396.742 943.861 392.154 945.237 387.108C946.614 382.061 938.355 348.11 938.355 348.11L942.484 311.407Z" fill="#575A89"/>
<path d="M883.921 245.827L888.395 244.2C888.395 244.2 879.039 234.844 866.022 235.658L869.684 231.997C869.684 231.997 860.734 228.743 852.599 237.285C848.322 241.776 843.374 247.054 840.289 253H835.497L837.497 257L830.497 261L837.682 260.282C837.001 263.735 837.235 267.306 838.361 270.641L839.988 275.116C839.988 275.116 846.497 262.099 846.497 260.472V264.539C846.497 264.539 850.972 260.878 850.972 258.438L853.412 261.285L854.633 256.811L869.684 261.285L867.243 257.624L876.599 258.844L872.938 254.37C872.938 254.37 883.514 259.658 883.921 264.133C884.328 268.607 889.616 274.302 889.616 274.302L892.056 270.234C892.056 270.234 895.717 251.929 883.921 245.827Z" fill="#2F2E41"/>
<path d="M882.997 270C884.93 270 886.497 267.538 886.497 264.5C886.497 261.462 884.93 259 882.997 259C881.064 259 879.497 261.462 879.497 264.5C879.497 267.538 881.064 270 882.997 270Z" fill="#FFB9B9"/>
<path d="M811.24 727.4C827.389 727.4 840.48 724.884 840.48 721.78C840.48 718.676 827.389 716.16 811.24 716.16C795.091 716.16 782 718.676 782 721.78C782 724.884 795.091 727.4 811.24 727.4Z" fill="#F9A826"/>
<path d="M810.75 723.85C812.628 723.85 814.15 721.853 814.15 719.39C814.15 716.927 812.628 714.93 810.75 714.93C808.872 714.93 807.35 716.927 807.35 719.39C807.35 721.853 808.872 723.85 810.75 723.85Z" fill="#3F3D56"/>
<path d="M810.75 718.4C812.628 718.4 814.15 716.403 814.15 713.94C814.15 711.477 812.628 709.48 810.75 709.48C808.872 709.48 807.35 711.477 807.35 713.94C807.35 716.403 808.872 718.4 810.75 718.4Z" fill="#3F3D56"/>
<path d="M810.75 712.95C812.628 712.95 814.15 710.953 814.15 708.49C814.15 706.027 812.628 704.03 810.75 704.03C808.872 704.03 807.35 706.027 807.35 708.49C807.35 710.953 808.872 712.95 810.75 712.95Z" fill="#3F3D56"/>
<path d="M810.75 707.51C812.628 707.51 814.15 705.513 814.15 703.05C814.15 700.587 812.628 698.59 810.75 698.59C808.872 698.59 807.35 700.587 807.35 703.05C807.35 705.513 808.872 707.51 810.75 707.51Z" fill="#3F3D56"/>
<path d="M810.75 702.06C812.628 702.06 814.15 700.063 814.15 697.6C814.15 695.137 812.628 693.14 810.75 693.14C808.872 693.14 807.35 695.137 807.35 697.6C807.35 700.063 808.872 702.06 810.75 702.06Z" fill="#3F3D56"/>
<path d="M810.75 696.61C812.628 696.61 814.15 694.613 814.15 692.15C814.15 689.687 812.628 687.69 810.75 687.69C808.872 687.69 807.35 689.687 807.35 692.15C807.35 694.613 808.872 696.61 810.75 696.61Z" fill="#3F3D56"/>
<path d="M810.75 691.17C812.628 691.17 814.15 689.173 814.15 686.71C814.15 684.247 812.628 682.25 810.75 682.25C808.872 682.25 807.35 684.247 807.35 686.71C807.35 689.173 808.872 691.17 810.75 691.17Z" fill="#3F3D56"/>
<path d="M823.48 649.43C823.947 648.841 824.372 648.22 824.75 647.57L815.81 646.1L825.48 646.17C826.407 644.15 826.912 641.963 826.966 639.742C827.019 637.52 826.619 635.311 825.79 633.25L812.79 639.98L824.79 631.18C823.672 629.235 822.165 627.542 820.363 626.207C818.56 624.871 816.502 623.921 814.316 623.417C812.131 622.913 809.864 622.865 807.659 623.277C805.454 623.688 803.358 624.55 801.501 625.808C799.644 627.067 798.067 628.695 796.867 630.59C795.668 632.486 794.873 634.608 794.531 636.825C794.189 639.042 794.309 641.306 794.881 643.475C795.454 645.643 796.468 647.671 797.86 649.43C797.134 650.36 796.51 651.366 796 652.43L807.61 658.43L795.23 654.27C794.361 656.841 794.146 659.588 794.605 662.263C795.064 664.938 796.183 667.456 797.86 669.59C795.966 671.995 794.788 674.885 794.459 677.929C794.131 680.973 794.665 684.047 796.002 686.802C797.339 689.556 799.424 691.878 802.019 693.503C804.614 695.127 807.614 695.989 810.675 695.989C813.736 695.989 816.736 695.127 819.331 693.503C821.926 691.878 824.011 689.556 825.348 686.802C826.685 684.047 827.219 680.973 826.891 677.929C826.562 674.885 825.384 671.995 823.49 669.59C825.75 666.714 826.979 663.163 826.979 659.505C826.979 655.847 825.75 652.296 823.49 649.42L823.48 649.43Z" fill="#F9A826"/>
<path opacity="0.1" d="M794.37 659.54C794.363 663.2 795.593 666.756 797.86 669.63C795.966 672.035 794.788 674.925 794.459 677.969C794.131 681.013 794.665 684.088 796.002 686.842C797.339 689.596 799.424 691.918 802.019 693.543C804.614 695.167 807.614 696.029 810.675 696.029C813.736 696.029 816.736 695.167 819.331 693.543C821.926 691.918 824.011 689.596 825.348 686.842C826.685 684.088 827.219 681.013 826.891 677.969C826.562 674.925 825.384 672.035 823.49 669.63C825.68 666.82 794.37 657.68 794.37 659.54Z" fill="black"/>
</g>
<defs>
<clipPath id="clip0">
<rect width="925.497" height="645.184" fill="white" transform="translate(90 82)"/>
</clipPath>
</defs>
</svg>
